# xmcd
#
# Track frame offsets:
#	150
#	13696
#	29935
#	43309
#	56311
#	71191
#	86136
#	95106
#	116688
#	128941
#	143699
#	156459
#	171625
#	183529
#	192883
#
# Disc length: 2774 seconds
#
# Revision: 1
# Processed by: cddbd v1.5.2PL0 Copyright (c) Steve Scherf et al.
# Submitted via: audiograbber 1.83.01
#
DISCID=ec0ad40f
DTITLE=Sing And Swing - Ratiopharm - Sing and Swing
DYEAR=2004
DGENRE=Pop
TTITLE0=Mack The Knife
TTITLE1=My Baby Just Cares For Me
TTITLE2=I Say A Little Prayer
TTITLE3=Walk On By
TTITLE4=Can't Take My Eyes Off You
TTITLE5=Mr. Bojangles
TTITLE6=Big Spender
TTITLE7=Just A Gigolo - I Ain't Got Nobody
TTITLE8=Mad About The Boy
TTITLE9=What The World Needs Now Is Love
TTITLE10=Raindrops Are Fallin' On My Head
TTITLE11=Beyond The Sea (La Mer)
TTITLE12=Somthin' Stupid
TTITLE13=Fly Me To The Moon
TTITLE14=Fever
EXTD=
EXTT0=
EXTT1=
EXTT2=
EXTT3=
EXTT4=
EXTT5=
EXTT6=
EXTT7=
EXTT8=
EXTT9=
EXTT10=
EXTT11=
EXTT12=
EXTT13=
EXTT14=
PLAYORDER=
